<svg width="32" height="32" viewBox="0 0 32 32" fill="none" xmlns="http://www.w3.org/2000/svg">
  <rect width="32" height="32" rx="6" fill="#1368BC"/>
  <rect x="6" y="6" width="20" height="20" rx="2" fill="white"/>
  <rect x="8" y="8" width="3" height="3" fill="#1368BC"/>
  <rect x="13" y="8" width="3" height="3" fill="#1368BC"/>
  <rect x="18" y="8" width="3" height="3" fill="#1368BC"/>
  <rect x="21" y="8" width="3" height="3" fill="#1368BC"/>
  <rect x="8" y="13" width="3" height="3" fill="#1368BC"/>
  <rect x="13" y="13" width="3" height="3" fill="#1368BC"/>
  <rect x="18" y="13" width="3" height="3" fill="#1368BC"/>
  <rect x="21" y="13" width="3" height="3" fill="#1368BC"/>
  <rect x="8" y="18" width="3" height="3" fill="#1368BC"/>
  <rect x="13" y="18" width="3" height="3" fill="#1368BC"/>
  <rect x="18" y="18" width="3" height="3" fill="#1368BC"/>
  <rect x="21" y="18" width="3" height="3" fill="#1368BC"/>
  <rect x="8" y="21" width="3" height="3" fill="#1368BC"/>
  <rect x="13" y="21" width="3" height="3" fill="#1368BC"/>
  <rect x="18" y="21" width="3" height="3" fill="#1368BC"/>
  <rect x="21" y="21" width="3" height="3" fill="#1368BC"/>
</svg>
